%
T3C0.0420F200S100
X001750Y001250
X002250Y002750
X002250Y003750
X002250Y004750
X002250Y005750
X002250Y006750
X002250Y007750
X002750Y001250
X003750Y002750
X003750Y003750
X003750Y004750
X003750Y005750
X003750Y006750
X003750Y007750
X003750Y008750
X003750Y009750
X003750Y010750
X003750Y011750
X003750Y012750
X003750Y013750
X004250Y001250
X005250Y001250
X005250Y006250
X005250Y007250
X005250Y010000
X005250Y011000
X005250Y015250
X004250Y015250
X006250Y001250
X007250Y001250
X007250Y015250
X006250Y015250
X008250Y001250
X009250Y001250
X009250Y015250
X008250Y015250
X010000Y002750
X010000Y003750
X010000Y004750
X010000Y005750
X010000Y006750
X010000Y007750
X010000Y008750
X010000Y009750
X010000Y010750
X010000Y011750
X010000Y012750
X010000Y013750
X011500Y003000
X011500Y004000
X011500Y005000
T1C0.0280F200S100
X001500Y009250
X002500Y009250
X002500Y012250
X001500Y012250
T2C0.0380F200S100
X001500Y013750
X002500Y013750
X002500Y016000
X001500Y016000
X011500Y009250
X012500Y009250
X012500Y011250
X011500Y011250
X011500Y013250
X012500Y013250
M30
