*
G04 Mass Parameters ***
*
G04 Image ***
*
%INC:\USERS\ADMIN\DESKTOP\WEATHERSTATION\WEATHERSTATION-\SCHEMATIC\CAPTURE\WEATHERSTATION-1.SMB*%
%ICAS*%
%MOIN*%
%IPPOS*%
%ASAXBY*%
G74*%FSLAN2X34Y34*%
*
G04 Aperture Definitions ***
*
%ADD10C,0.0620*%
%ADD11R,0.0620X0.0620*%
%ADD12C,0.0450*%
%ADD13C,0.0120*%
%ADD14C,0.0620*%
%ADD15R,0.0620X0.0620*%
%ADD16C,0.0450*%
%ADD17C,0.0700*%
%ADD18C,0.0820*%
%ADD19R,0.0820X0.0820*%
%ADD20C,0.0650*%
%ADD21C,0.0500*%
%ADD22C,0.0670*%
%ADD23R,0.0670X0.0670*%
*
G04 Plot Data ***
*
G54D14*
X0011500Y0004000D03*
Y0003000D03*
X0003750Y0012750D03*
Y0011750D03*
Y0010750D03*
Y0009750D03*
Y0008750D03*
Y0007750D03*
Y0006750D03*
Y0005750D03*
Y0003750D03*
Y0002750D03*
X0010000Y0012750D03*
Y0011750D03*
Y0010750D03*
Y0009750D03*
Y0008750D03*
Y0007750D03*
Y0006750D03*
Y0005750D03*
Y0003750D03*
Y0002750D03*
X0005250Y0010000D03*
Y0007250D03*
Y0001250D03*
X0006250D03*
X0007250D03*
X0008250D03*
X0009250D03*
X0005250Y0015250D03*
X0006250D03*
X0007250D03*
X0008250D03*
X0009250D03*
X0002250Y0006750D03*
Y0005750D03*
Y0004750D03*
Y0003750D03*
Y0002750D03*
X0002750Y0001250D03*
G54D15*
X0011500Y0005000D03*
X0003750Y0013750D03*
Y0004750D03*
X0010000Y0013750D03*
Y0004750D03*
X0005250Y0011000D03*
Y0006250D03*
X0004250Y0001250D03*
Y0015250D03*
X0002250Y0007750D03*
X0001750Y0001250D03*
G54D16*
X0001500Y0012250D03*
Y0009250D03*
X0002500Y0012250D03*
Y0009250D03*
G54D22*
X0001500Y0013750D03*
X0002500D03*
X0001500Y0016000D03*
X0002500D03*
X0011500Y0009250D03*
X0012500D03*
X0011500Y0013250D03*
X0012500D03*
X0011500Y0011250D03*
X0012500D03*
M02*
