*
G04 Mass Parameters ***
*
G04 Image ***
*
%INC:\USERS\ADMIN\DESKTOP\WEATHERSTATION\WEATHERSTATION-\SCHEMATIC\CAPTURE\WEATHERSTATION-1.SST*%
%ICAS*%
%MOIN*%
%IPPOS*%
%ASAXBY*%
G74*%FSLAN2X34Y34*%
*
G04 Aperture Definitions ***
*
%ADD10C,0.0620*%
%ADD11R,0.0620X0.0620*%
%ADD12C,0.0450*%
%ADD13C,0.0120*%
%ADD14C,0.0620*%
%ADD15R,0.0620X0.0620*%
%ADD16C,0.0450*%
%ADD17C,0.0700*%
%ADD18C,0.0820*%
%ADD19R,0.0820X0.0820*%
%ADD20C,0.0650*%
%ADD21C,0.0500*%
%ADD22C,0.0670*%
%ADD23R,0.0670X0.0670*%
%ADD24C,0.0100*%
%ADD25C,0.0080*%
*
G04 Plot Data ***
*
G54D24*
G01X0012250Y0015722D02*
X0011894D01*
X0012250Y0016078D01*
Y0016167D01*
X0012205Y0016255D01*
X0011939D01*
X0011894Y0016167D01*
X0011339Y0015722D02*
Y0016255D01*
X0011294Y0015722D02*
X0011561D01*
X0011650Y0015900D01*
Y0016078D01*
X0011561Y0016255D01*
X0011294D01*
X0012161Y0013722D02*
X0011983D01*
X0012072D02*
Y0014255D01*
X0011983Y0014167D01*
X0011339Y0013722D02*
Y0014255D01*
X0011294Y0013722D02*
X0011561D01*
X0011650Y0013900D01*
Y0014078D01*
X0011561Y0014255D01*
X0011294D01*
X0011894Y0011811D02*
X0011983Y0011722D01*
X0012161D01*
X0012250Y0011811D01*
Y0011900D01*
X0012072Y0012078D01*
X0012250Y0012255D01*
X0011894D01*
X0011339Y0011722D02*
Y0012255D01*
X0011294Y0011722D02*
X0011561D01*
X0011650Y0011900D01*
Y0012078D01*
X0011561Y0012255D01*
X0011294D01*
X0003405Y0016222D02*
X0003050D01*
X0003405Y0016578D01*
Y0016667D01*
X0003361Y0016755D01*
X0003094D01*
X0003050Y0016667D01*
X0002672Y0016489D02*
X0002805Y0016222D01*
X0002450Y0016489D02*
X0002716D01*
X0002805Y0016578D01*
Y0016667D01*
X0002716Y0016755D01*
X0002450D01*
Y0016222D01*
X0001894D02*
Y0016755D01*
X0001850Y0016222D02*
X0002116D01*
X0002205Y0016400D01*
Y0016578D01*
X0002116Y0016755D01*
X0001850D01*
X0001605Y0016222D02*
X0001294D01*
Y0016755D01*
X0003316Y0018472D02*
X0003139D01*
X0003228D02*
Y0019005D01*
X0003139Y0018917D01*
X0002672Y0018739D02*
X0002805Y0018472D01*
X0002450Y0018739D02*
X0002716D01*
X0002805Y0018828D01*
Y0018917D01*
X0002716Y0019005D01*
X0002450D01*
Y0018472D01*
X0001894D02*
Y0019005D01*
X0001850Y0018472D02*
X0002116D01*
X0002205Y0018650D01*
Y0018828D01*
X0002116Y0019005D01*
X0001850D01*
X0001605Y0018472D02*
X0001294D01*
Y0019005D01*
G01X0012000Y0008250D02*
G03X0013000Y0009250I0000000J0001000D01*
G01X0011000D02*
G03X0012000Y0008250I0001000J0000000D01*
Y0010250D02*
G03X0011000Y0009250I0000000J0001000D01*
G01X0013000D02*
G03X0012000Y0010250I0001000J0000000D01*
G01X0002000Y0012750D02*
G03X0003000Y0013750I0000000J0001000D01*
G01X0001000D02*
G03X0002000Y0012750I0001000J0000000D01*
Y0014750D02*
G03X0001000Y0013750I0000000J0001000D01*
G01X0003000D02*
G03X0002000Y0014750I0001000J0000000D01*
Y0015000D02*
G03X0003000Y0016000I0000000J0001000D01*
G01X0001000D02*
G03X0002000Y0015000I0001000J0000000D01*
Y0017000D02*
G03X0001000Y0016000I0000000J0001000D01*
G01X0003000D02*
G03X0002000Y0017000I0001000J0000000D01*
G01X0012000Y0012250D02*
G03X0013000Y0013250I0000000J0001000D01*
G01X0011000D02*
G03X0012000Y0012250I0001000J0000000D01*
Y0014250D02*
G03X0011000Y0013250I0000000J0001000D01*
G01X0013000D02*
G03X0012000Y0014250I0001000J0000000D01*
Y0010250D02*
G03X0013000Y0011250I0000000J0001000D01*
G01X0011000D02*
G03X0012000Y0010250I0001000J0000000D01*
Y0012250D02*
G03X0011000Y0011250I0000000J0001000D01*
G01X0013000D02*
G03X0012000Y0012250I0001000J0000000D01*
G54D25*
G01X0004488Y0013844D02*
X0004265D01*
X0004376Y0014066D01*
X0004432D01*
Y0013733D01*
X0003883Y0013844D02*
Y0013788D01*
X0003911Y0013733D01*
X0004022D01*
X0004050Y0013788D01*
Y0014066D01*
X0004078D02*
X0003966D01*
X0010167Y0015249D02*
X0010333D01*
X0010361Y0015194D01*
Y0015138D01*
X0010333Y0015082D01*
X0010167D01*
X0010139Y0015138D01*
Y0015194D01*
X0010250Y0015416D01*
X0002399Y0013540D02*
Y0013707D01*
X0002455Y0013735D01*
X0002510D01*
X0002566Y0013707D01*
Y0013540D01*
X0002510Y0013512D01*
X0002455D01*
X0002233Y0013623D01*
X0002344Y0014117D02*
X0002288D01*
X0002233Y0014089D01*
Y0013978D01*
X0002288Y0013950D01*
X0002566D01*
Y0013922D02*
Y0014033D01*
X0003582Y0014694D02*
Y0014805D01*
Y0014750D02*
X0003916D01*
X0003860Y0014805D01*
X0003582Y0001173D02*
Y0001396D01*
X0003805Y0001173D01*
X0003860D01*
X0003916Y0001201D01*
Y0001368D01*
X0003860Y0001396D01*
X0003582Y0001583D02*
Y0001694D01*
Y0001639D02*
X0003916D01*
X0003860Y0001694D01*
X0005082Y0011944D02*
Y0012055D01*
Y0012000D02*
X0005416D01*
X0005360Y0012055D01*
X0003733Y0011179D02*
X0004066Y0011012D01*
Y0011235D01*
X0003844Y0011617D02*
X0003788D01*
X0003733Y0011589D01*
Y0011478D01*
X0003788Y0011450D01*
X0004066D01*
Y0011422D02*
Y0011533D01*
X0011332Y0005944D02*
Y0006055D01*
Y0006000D02*
X0011666D01*
X0011610Y0006055D01*
X0009983Y0004797D02*
X0010038Y0004852D01*
X0010094Y0004880D01*
X0010205D01*
X0010260Y0004852D01*
X0010316Y0004797D01*
Y0004741D01*
X0010260Y0004686D01*
X0010205Y0004658D01*
X0010094D01*
X0010038Y0004686D01*
X0009983Y0004741D01*
Y0004797D01*
Y0005068D02*
Y0005179D01*
Y0005123D02*
X0010316D01*
X0010260Y0005179D01*
X0010094Y0005617D02*
X0010038D01*
X0009983Y0005589D01*
Y0005478D01*
X0010038Y0005450D01*
X0010316D01*
Y0005422D02*
Y0005533D01*
X0011388Y0002111D02*
X0011332Y0002055D01*
Y0001944D01*
X0011388Y0001889D01*
X0011444D01*
X0011555Y0002000D01*
X0011666Y0001889D01*
Y0002111D01*
X0003058Y0011041D02*
Y0011152D01*
Y0011097D02*
X0003391D01*
X0003335Y0011152D01*
X0003224Y0011479D02*
X0003058Y0011395D01*
X0003224Y0011618D02*
Y0011451D01*
X0003280Y0011395D01*
X0003335D01*
X0003391Y0011451D01*
Y0011618D01*
X0003058D01*
X0005417Y0005305D02*
Y0005194D01*
Y0005250D02*
X0005084D01*
X0005140Y0005194D01*
X0006601Y0006043D02*
Y0006210D01*
X0006656Y0006238D01*
X0006712D01*
X0006767Y0006210D01*
Y0006043D01*
X0006712Y0006015D01*
X0006656D01*
X0006434Y0006126D01*
X0006656Y0005633D02*
X0006712D01*
X0006767Y0005661D01*
Y0005772D01*
X0006712Y0005800D01*
X0006434D01*
Y0005828D02*
Y0005716D01*
X0008649Y0013540D02*
X0008705Y0013512D01*
X0008760D01*
X0008816Y0013540D01*
Y0013707D01*
X0008760Y0013735D01*
X0008705D01*
X0008649Y0013707D01*
Y0013540D01*
X0008594Y0013512D01*
X0008538D01*
X0008483Y0013540D01*
Y0013707D01*
X0008538Y0013735D01*
X0008594D01*
X0008649Y0013707D01*
X0008594Y0014117D02*
X0008538D01*
X0008483Y0014089D01*
Y0013978D01*
X0008538Y0013950D01*
X0008816D01*
Y0013922D02*
Y0014033D01*
X0009832Y0014694D02*
Y0014805D01*
Y0014750D02*
X0010166D01*
X0010110Y0014805D01*
X0009832Y0001173D02*
Y0001396D01*
X0010055Y0001173D01*
X0010110D01*
X0010166Y0001201D01*
Y0001368D01*
X0010110Y0001396D01*
X0009832Y0001583D02*
Y0001694D01*
Y0001639D02*
X0010166D01*
X0010110Y0001694D01*
X0002082Y0008694D02*
Y0008805D01*
Y0008750D02*
X0002416D01*
X0002360Y0008805D01*
X0000788Y0007735D02*
X0000733Y0007679D01*
Y0007568D01*
X0000788Y0007512D01*
X0000844D01*
X0000955Y0007623D01*
X0001066Y0007512D01*
Y0007735D01*
X0000844Y0008117D02*
X0000788D01*
X0000733Y0008089D01*
Y0007978D01*
X0000788Y0007950D01*
X0001066D01*
Y0007922D02*
Y0008033D01*
X0002249Y0001833D02*
Y0001667D01*
X0002194Y0001639D01*
X0002138D01*
X0002082Y0001667D01*
Y0001833D01*
X0002138Y0001861D01*
X0002194D01*
X0002416Y0001750D01*
X0002058Y0010985D02*
Y0011208D01*
X0002280Y0010985D01*
X0002335D01*
X0002391Y0011013D01*
Y0011180D01*
X0002335Y0011208D01*
X0002224Y0011479D02*
X0002058Y0011395D01*
X0002224Y0011618D02*
Y0011451D01*
X0002280Y0011395D01*
X0002335D01*
X0002391Y0011451D01*
Y0011618D01*
X0002058D01*
X0000805Y0001082D02*
X0000694D01*
X0000750D02*
Y0001416D01*
X0000694Y0001360D01*
X0001738Y-0000267D02*
X0001515D01*
X0001738Y-0000045D01*
Y0000010D01*
X0001710Y0000066D01*
X0001543D01*
X0001515Y0000010D01*
X0001133Y-0000156D02*
Y-0000212D01*
X0001161Y-0000267D01*
X0001272D01*
X0001300Y-0000212D01*
Y0000066D01*
X0001328D02*
X0001216D01*
X0003305Y0001082D02*
X0003194D01*
X0003250D02*
Y0001416D01*
X0003194Y0001360D01*
X0004265Y-0000212D02*
X0004293Y-0000267D01*
X0004460D01*
X0004488Y-0000212D01*
Y-0000101D01*
X0004432Y-0000045D01*
X0004265D01*
Y0000066D01*
X0004488D01*
X0003883Y-0000156D02*
Y-0000212D01*
X0003911Y-0000267D01*
X0004022D01*
X0004050Y-0000212D01*
Y0000066D01*
X0004078D02*
X0003966D01*
X0010167Y0001249D02*
X0010333D01*
X0010361Y0001194D01*
Y0001138D01*
X0010333Y0001082D01*
X0010167D01*
X0010139Y0001138D01*
Y0001194D01*
X0010250Y0001416D01*
X0003305Y0015082D02*
X0003194D01*
X0003250D02*
Y0015416D01*
X0003194Y0015360D01*
X0011000Y0002450D02*
X0012000D01*
Y0005550D01*
X0011000D01*
Y0005000D01*
Y0004000D01*
Y0003000D01*
Y0002450D01*
X0002125Y0011625D02*
Y0009875D01*
X0002875D01*
Y0011625D01*
X0002125D01*
X0002500Y0009625D02*
Y0009875D01*
Y0011875D02*
Y0011625D01*
X0005750Y0007800D02*
X0004750D01*
Y0005700D01*
X0005750D01*
Y0006250D01*
Y0007250D01*
Y0007800D01*
X0009500Y0003750D02*
Y0002250D01*
Y0002200D01*
X0010500D01*
Y0002250D01*
Y0014300D01*
X0009500D01*
Y0013750D01*
Y0012750D01*
Y0011750D01*
Y0010750D01*
Y0009750D01*
Y0007750D01*
Y0005750D01*
Y0003750D01*
X0001750Y0002200D02*
X0002750D01*
Y0008300D01*
X0001750D01*
Y0007750D01*
Y0006750D01*
Y0005750D01*
Y0004750D01*
Y0003750D01*
Y0002200D01*
X0001125Y0011625D02*
Y0009875D01*
X0001875D01*
Y0011625D01*
X0001125D01*
X0001500Y0009625D02*
Y0009875D01*
Y0011875D02*
Y0011625D01*
X0003300Y0000750D02*
Y0001750D01*
X0001200D01*
Y0000750D01*
X0001750D01*
X0002750D01*
X0003300D01*
X0009800D02*
Y0001750D01*
X0003700D01*
Y0000750D01*
X0004250D01*
X0005250D01*
X0006250D01*
X0007250D01*
X0008250D01*
X0009800D01*
Y0014750D02*
Y0015750D01*
X0003700D01*
Y0014750D01*
X0004250D01*
X0005250D01*
X0006250D01*
X0007250D01*
X0008250D01*
X0009800D01*
X0003250Y0003750D02*
Y0002250D01*
Y0002200D01*
X0004250D01*
Y0002250D01*
Y0014300D01*
X0003250D01*
Y0013750D01*
Y0012750D01*
Y0011750D01*
Y0010750D01*
Y0009750D01*
Y0007750D01*
Y0005750D01*
Y0003750D01*
X0004750Y0009450D02*
X0005750D01*
Y0011550D01*
X0004750D01*
Y0011000D01*
Y0010000D01*
Y0009450D01*
M02*
