*
G04 Mass Parameters ***
*
G04 Image ***
*
%INC:\USERS\ADMIN\DESKTOP\WEATHERSTATION\WEATHERSTATION-\SCHEMATIC\CAPTURE\WEATHERSTATION-1.BOT*%
%ICAS*%
%MOIN*%
%IPPOS*%
%ASAXBY*%
G74*%FSLAN2X34Y34*%
*
G04 Aperture Definitions ***
*
%ADD10C,0.0620*%
%ADD11R,0.0620X0.0620*%
%ADD12C,0.0450*%
%ADD13C,0.0120*%
%ADD14C,0.0620*%
%ADD15R,0.0620X0.0620*%
%ADD16C,0.0450*%
*
G04 Plot Data ***
*
G54D13*
G01X0010000Y0012750D02*
X0009500Y0012250D01*
Y0007500D01*
X0009750Y0007250D01*
X0011000D01*
X0011500Y0006750D01*
Y0005000D01*
X0001500Y0012250D02*
Y0012750D01*
Y0013750D01*
X0010000Y0005750D02*
X0010750Y0005000D01*
Y0003750D01*
X0011500Y0003000D01*
X0012500Y0004000D01*
Y0009250D01*
Y0011250D02*
Y0013250D01*
Y0009250D02*
Y0011250D01*
X0002500Y0013750D02*
Y0016000D01*
Y0012250D02*
Y0011500D01*
Y0011250D01*
X0003000Y0010750D01*
Y0008500D01*
X0003750Y0007750D01*
Y0006750D02*
X0003000D01*
X0002500Y0006250D01*
X0002000D01*
X0001750Y0006000D01*
Y0001250D01*
X0008250Y0015250D02*
Y0004500D01*
X0010000Y0002750D01*
X0002500Y0012250D02*
Y0011500D01*
X0001500D01*
X0001000Y0012000D01*
Y0014250D01*
X0001500Y0014750D01*
Y0016000D01*
X0011500Y0011250D02*
X0011000Y0010750D01*
X0010000Y0009750D01*
X0001500Y0012250D02*
Y0012750D01*
X0002750D01*
X0003250Y0012250D01*
Y0009250D01*
X0003750Y0008750D01*
X0011500Y0013250D02*
Y0012250D01*
X0010000Y0010750D01*
X0002750Y0001250D02*
Y0003250D01*
X0002250Y0003750D01*
X0006250Y0001250D02*
Y0011750D01*
X0005250Y0012750D01*
Y0015250D01*
X0003750Y0010750D02*
X0005250Y0012250D01*
X0005500Y0012500D01*
X0005250Y0012750D01*
Y0015250D01*
X0007250D02*
X0007750Y0015750D01*
X0009500D01*
X0009750Y0015500D01*
Y0014500D01*
X0009250Y0014000D01*
Y0004500D01*
X0010000Y0003750D01*
G54D14*
X0001500Y0013750D03*
X0002500D03*
X0001500Y0016000D03*
X0002500D03*
X0011500Y0004000D03*
Y0003000D03*
X0003750Y0012750D03*
Y0011750D03*
Y0010750D03*
Y0009750D03*
Y0008750D03*
Y0007750D03*
Y0006750D03*
Y0005750D03*
Y0003750D03*
Y0002750D03*
X0010000Y0012750D03*
Y0011750D03*
Y0010750D03*
Y0009750D03*
Y0008750D03*
Y0007750D03*
Y0006750D03*
Y0005750D03*
Y0003750D03*
Y0002750D03*
X0005250Y0010000D03*
Y0007250D03*
Y0001250D03*
X0006250D03*
X0007250D03*
X0008250D03*
X0009250D03*
X0005250Y0015250D03*
X0006250D03*
X0007250D03*
X0008250D03*
X0009250D03*
X0002250Y0006750D03*
Y0005750D03*
Y0004750D03*
Y0003750D03*
Y0002750D03*
X0002750Y0001250D03*
X0011500Y0009250D03*
X0012500D03*
X0011500Y0013250D03*
X0012500D03*
X0011500Y0011250D03*
X0012500D03*
G54D15*
X0011500Y0005000D03*
X0003750Y0013750D03*
Y0004750D03*
X0010000Y0013750D03*
Y0004750D03*
X0005250Y0011000D03*
Y0006250D03*
X0004250Y0001250D03*
Y0015250D03*
X0002250Y0007750D03*
X0001750Y0001250D03*
G54D16*
X0001500Y0012250D03*
Y0009250D03*
X0002500Y0012250D03*
Y0009250D03*
M02*
