*
G04 Mass Parameters ***
*
G04 Image ***
*
%INC:\USERS\ADMIN\DESKTOP\WEATHERSTATION\WEATHERSTATION-\SCHEMATIC\CAPTURE\WEATHERSTATION-1.DRD*%
%ICAS*%
%MOIN*%
%IPPOS*%
%ASAXBY*%
G74*%FSLAN2X34Y34*%
*
G04 Aperture Definitions ***
*
%ADD10C,0.0620*%
%ADD11R,0.0620X0.0620*%
%ADD12C,0.0450*%
%ADD13C,0.0120*%
%ADD14C,0.0620*%
%ADD15R,0.0620X0.0620*%
%ADD16C,0.0450*%
%ADD17C,0.0700*%
%ADD18C,0.0820*%
%ADD19R,0.0820X0.0820*%
%ADD20C,0.0650*%
%ADD21C,0.0500*%
%ADD22C,0.0670*%
%ADD23R,0.0670X0.0670*%
%ADD24C,0.0100*%
%ADD25C,0.0080*%
*
G04 Plot Data ***
*
G54D21*
G01X0013750D01*
Y0018000D01*
X0000000D01*
Y0000000D01*
G54D24*
G01X0027042Y-0026667D02*
X0027125Y-0026833D01*
X0027625D01*
X0027708Y-0026667D01*
Y-0026333D01*
X0027542Y-0026167D01*
X0027042D01*
Y-0025833D01*
X0027708D01*
X0026175Y-0026333D02*
X0026675D01*
X0026758Y-0026500D01*
Y-0026667D01*
X0026675Y-0026833D01*
X0026175D01*
X0026092Y-0026667D01*
Y-0026500D01*
X0026425Y-0025833D01*
X0015312Y-0026833D02*
X0014729D01*
Y-0025833D01*
X0014446Y-0026500D02*
X0013779D01*
X0014446Y-0026833D02*
Y-0026333D01*
X0014196Y-0025833D01*
X0014029D01*
X0013779Y-0026333D01*
Y-0026833D01*
X0013162D02*
Y-0025833D01*
X0013496D02*
X0012829D01*
X0011962Y-0026833D02*
X0011879Y-0026667D01*
Y-0026000D01*
X0011962Y-0025833D01*
X0012462D01*
X0012546Y-0026000D01*
Y-0026667D01*
X0012462Y-0026833D01*
X0011962D01*
X0011262D02*
Y-0025833D01*
X0011596D02*
X0010929D01*
X0027708Y-0024972D02*
X0027486D01*
X0027597D02*
Y-0024306D01*
X0027486Y-0024417D01*
X0026675Y-0024861D02*
X0026730Y-0024972D01*
X0027064D01*
X0027119Y-0024861D01*
Y-0024639D01*
X0027008Y-0024528D01*
X0026675D01*
Y-0024306D01*
X0027119D01*
X0014092Y-0024972D02*
X0013647D01*
X0014092Y-0024528D01*
Y-0024417D01*
X0014036Y-0024306D01*
X0013703D01*
X0013647Y-0024417D01*
X0013392Y-0024750D02*
X0012947D01*
X0013169Y-0024306D01*
X0013280D01*
Y-0024972D01*
X0012414D02*
X0012303Y-0024861D01*
X0012247Y-0024750D01*
Y-0024528D01*
X0012303Y-0024417D01*
X0012414Y-0024306D01*
X0012525D01*
X0012636Y-0024417D01*
X0012692Y-0024528D01*
Y-0024750D01*
X0012636Y-0024861D01*
X0012525Y-0024972D01*
X0012414D01*
X0011881D02*
X0011992D01*
Y-0024861D01*
X0011881D01*
Y-0024972D01*
X0011236D02*
X0011125Y-0024861D01*
X0011069Y-0024750D01*
Y-0024528D01*
X0011125Y-0024417D01*
X0011236Y-0024306D01*
X0011347D01*
X0011458Y-0024417D01*
X0011514Y-0024528D01*
Y-0024750D01*
X0011458Y-0024861D01*
X0011347Y-0024972D01*
X0011236D01*
X0027430Y-0023472D02*
X0027319Y-0023361D01*
X0027264Y-0023250D01*
Y-0023028D01*
X0027319Y-0022917D01*
X0027430Y-0022806D01*
X0027542D01*
X0027653Y-0022917D01*
X0027708Y-0023028D01*
Y-0023250D01*
X0027653Y-0023361D01*
X0027542Y-0023472D01*
X0027430D01*
X0027008D02*
X0026786D01*
X0026897D02*
Y-0022806D01*
X0026786Y-0022917D01*
X0014036Y-0023139D02*
X0014092Y-0023028D01*
Y-0022917D01*
X0014036Y-0022806D01*
X0013703D01*
X0013647Y-0022917D01*
Y-0023028D01*
X0013703Y-0023139D01*
X0014036D01*
X0014092Y-0023250D01*
Y-0023361D01*
X0014036Y-0023472D01*
X0013703D01*
X0013647Y-0023361D01*
Y-0023250D01*
X0013703Y-0023139D01*
X0012947Y-0023361D02*
X0013058Y-0023472D01*
X0013280D01*
X0013392Y-0023361D01*
Y-0023250D01*
X0013169Y-0023028D01*
X0013392Y-0022806D01*
X0012947D01*
X0012414Y-0023472D02*
X0012303Y-0023361D01*
X0012247Y-0023250D01*
Y-0023028D01*
X0012303Y-0022917D01*
X0012414Y-0022806D01*
X0012525D01*
X0012636Y-0022917D01*
X0012692Y-0023028D01*
Y-0023250D01*
X0012636Y-0023361D01*
X0012525Y-0023472D01*
X0012414D01*
X0011881D02*
X0011992D01*
Y-0023361D01*
X0011881D01*
Y-0023472D01*
X0011236D02*
X0011125Y-0023361D01*
X0011069Y-0023250D01*
Y-0023028D01*
X0011125Y-0022917D01*
X0011236Y-0022806D01*
X0011347D01*
X0011458Y-0022917D01*
X0011514Y-0023028D01*
Y-0023250D01*
X0011458Y-0023361D01*
X0011347Y-0023472D01*
X0011236D01*
X0027708Y-0021750D02*
X0027264D01*
X0027486Y-0021306D01*
X0027597D01*
Y-0021972D01*
X0014036Y-0021639D02*
X0014092Y-0021528D01*
Y-0021417D01*
X0014036Y-0021306D01*
X0013703D01*
X0013647Y-0021417D01*
Y-0021528D01*
X0013703Y-0021639D01*
X0014036D01*
X0014092Y-0021750D01*
Y-0021861D01*
X0014036Y-0021972D01*
X0013703D01*
X0013647Y-0021861D01*
Y-0021750D01*
X0013703Y-0021639D01*
X0013392Y-0021972D02*
X0012947D01*
X0013392Y-0021528D01*
Y-0021417D01*
X0013336Y-0021306D01*
X0013003D01*
X0012947Y-0021417D01*
X0012414Y-0021972D02*
X0012303Y-0021861D01*
X0012247Y-0021750D01*
Y-0021528D01*
X0012303Y-0021417D01*
X0012414Y-0021306D01*
X0012525D01*
X0012636Y-0021417D01*
X0012692Y-0021528D01*
Y-0021750D01*
X0012636Y-0021861D01*
X0012525Y-0021972D01*
X0012414D01*
X0011881D02*
X0011992D01*
Y-0021861D01*
X0011881D01*
Y-0021972D01*
X0011236D02*
X0011125Y-0021861D01*
X0011069Y-0021750D01*
Y-0021528D01*
X0011125Y-0021417D01*
X0011236Y-0021306D01*
X0011347D01*
X0011458Y-0021417D01*
X0011514Y-0021528D01*
Y-0021750D01*
X0011458Y-0021861D01*
X0011347Y-0021972D01*
X0011236D01*
X0036112Y-0019833D02*
X0035612D01*
X0036279Y-0020333D02*
X0035612D01*
Y-0019333D01*
X0036279D01*
X0034996Y-0020333D02*
Y-0019333D01*
X0035329D02*
X0034662D01*
X0033796Y-0020333D02*
X0033712Y-0020167D01*
Y-0019500D01*
X0033796Y-0019333D01*
X0034296D01*
X0034379Y-0019500D01*
Y-0020167D01*
X0034296Y-0020333D01*
X0033796D01*
X0033429Y-0019333D02*
Y-0020333D01*
X0033262Y-0020167D01*
X0032929Y-0019500D01*
X0032762Y-0019333D01*
Y-0020333D01*
X0026925D02*
Y-0019833D01*
X0027258Y-0019333D02*
X0027008Y-0019833D01*
X0026842D01*
X0026592Y-0019333D01*
X0025975Y-0020333D02*
Y-0019333D01*
X0026308D02*
X0025642D01*
X0025025Y-0020000D02*
X0025358Y-0020333D01*
X0024692Y-0020167D02*
X0024775Y-0020333D01*
X0025108D01*
X0025192Y-0020167D01*
X0025358Y-0020000D01*
Y-0019500D01*
X0025275Y-0019333D01*
X0024775D01*
X0024692Y-0019500D01*
Y-0020167D01*
X0020408Y-0020333D02*
X0019825D01*
Y-0019333D01*
X0018958Y-0020333D02*
X0018875Y-0020167D01*
Y-0019500D01*
X0018958Y-0019333D01*
X0019458D01*
X0019542Y-0019500D01*
Y-0020167D01*
X0019458Y-0020333D01*
X0018958D01*
X0018258D02*
Y-0019333D01*
X0018592D02*
X0017925D01*
X0012587Y-0020333D02*
Y-0019333D01*
X0012421Y-0019500D01*
X0012254Y-0019833D01*
X0012087Y-0019500D01*
X0011921Y-0019333D01*
Y-0020333D01*
X0011637Y-0020000D02*
X0010971D01*
X0011637Y-0020333D02*
Y-0019833D01*
X0011387Y-0019333D01*
X0011221D01*
X0010971Y-0019833D01*
Y-0020333D01*
X0010687D02*
X0010354D01*
X0010521D02*
Y-0019333D01*
X0010687D02*
X0010354D01*
X0009321Y-0020333D02*
Y-0019333D01*
X0009237Y-0020333D02*
X0009737D01*
X0009904Y-0020000D01*
Y-0019667D01*
X0009737Y-0019333D01*
X0009237D01*
X0006150Y-0020333D02*
Y-0019333D01*
X0005983Y-0019500D01*
X0005817Y-0019833D01*
X0005650Y-0019500D01*
X0005483Y-0019333D01*
Y-0020333D01*
X0004867D02*
Y-0019833D01*
X0005200Y-0019333D02*
X0004950Y-0019833D01*
X0004783D01*
X0004533Y-0019333D01*
X0004250Y-0019500D02*
X0004167Y-0019333D01*
X0003667D01*
X0003583Y-0019500D01*
Y-0019667D01*
X0003667Y-0019833D01*
X0004167D01*
X0004250Y-0020000D01*
Y-0020167D01*
X0004167Y-0020333D01*
X0003667D01*
X0003583Y-0020167D01*
X0026437Y-0018333D02*
Y-0017333D01*
X0026771D02*
X0026104D01*
X0025571Y-0017833D02*
X0025821Y-0018333D01*
X0025154Y-0017833D02*
X0025654D01*
X0025821Y-0017667D01*
Y-0017500D01*
X0025654Y-0017333D01*
X0025154D01*
Y-0018333D01*
X0024871Y-0018000D02*
X0024204D01*
X0024871Y-0018333D02*
Y-0017833D01*
X0024621Y-0017333D01*
X0024454D01*
X0024204Y-0017833D01*
Y-0018333D01*
X0023921Y-0017833D02*
X0023254D01*
X0023921Y-0018333D02*
Y-0017333D01*
X0023254Y-0018333D02*
Y-0017333D01*
X0022971Y-0018167D02*
X0022887Y-0018333D01*
X0022387D01*
X0022304Y-0018167D01*
Y-0017500D01*
X0022387Y-0017333D01*
X0022887D01*
X0022971Y-0017500D01*
X0020696Y-0018333D02*
X0020112D01*
Y-0017333D01*
X0019829Y-0018333D02*
X0019246D01*
Y-0017333D01*
X0018962Y-0018333D02*
X0018629D01*
X0018796D02*
Y-0017333D01*
X0018962D02*
X0018629D01*
X0017929Y-0017833D02*
X0018179Y-0018333D01*
X0017512Y-0017833D02*
X0018012D01*
X0018179Y-0017667D01*
Y-0017500D01*
X0018012Y-0017333D01*
X0017512D01*
Y-0018333D01*
X0016646D02*
Y-0017333D01*
X0016562Y-0018333D02*
X0017062D01*
X0017229Y-0018000D01*
Y-0017667D01*
X0017062Y-0017333D01*
X0016562D01*
X0004825Y-0024500D02*
X0004575Y-0024750D01*
X0005075D02*
X0004825Y-0024500D01*
Y-0025000D02*
X0005075Y-0024750D01*
X0004575D02*
X0004825Y-0025000D01*
X0005075Y-0023250D02*
X0004575D01*
X0004825Y-0023000D02*
Y-0023500D01*
X0005075Y-0021500D02*
X0004575Y-0022000D01*
X0005075D02*
X0004575Y-0021500D01*
X0040300Y-0027550D02*
X0002950D01*
X0040250Y-0027500D02*
X0003000D01*
X0040250Y-0025500D02*
X0003000D01*
X0040250Y-0024000D02*
X0003000D01*
X0040250Y-0022500D02*
X0003000D01*
X0040250Y-0021000D02*
X0003000D01*
X0040250Y-0020950D02*
X0003000D01*
X0040250Y-0019000D02*
X0003000D01*
X0040250Y-0018950D02*
X0003000D01*
X0040250Y-0017000D02*
X0003000D01*
X0040300Y-0016950D02*
X0002950D01*
X0040300Y-0027500D02*
Y-0017000D01*
X0040250Y-0027500D02*
Y-0017000D01*
X0028708Y-0027500D02*
Y-0019000D01*
X0023158Y-0027500D02*
Y-0019000D01*
X0015092Y-0025500D02*
Y-0019000D01*
X0006700Y-0025500D02*
Y-0019000D01*
X0006650Y-0025500D02*
Y-0019000D01*
X0002950Y-0027500D02*
Y-0017000D01*
X0003000Y-0027500D02*
Y-0017000D01*
X0001750Y0012500D02*
X0001250Y0012000D01*
X0001750D02*
X0001250Y0012500D01*
X0001750Y0009500D02*
X0001250Y0009000D01*
X0001750D02*
X0001250Y0009500D01*
X0002750Y0012500D02*
X0002250Y0012000D01*
X0002750D02*
X0002250Y0012500D01*
X0002750Y0009500D02*
X0002250Y0009000D01*
X0002750D02*
X0002250Y0009500D01*
X0001750Y0013750D02*
X0001250D01*
X0001500Y0014000D02*
Y0013500D01*
X0002750Y0013750D02*
X0002250D01*
X0002500Y0014000D02*
Y0013500D01*
X0001750Y0016000D02*
X0001250D01*
X0001500Y0016250D02*
Y0015750D01*
X0002750Y0016000D02*
X0002250D01*
X0002500Y0016250D02*
Y0015750D01*
X0011500Y0005250D02*
X0011250Y0005000D01*
X0011750D02*
X0011500Y0005250D01*
Y0004750D02*
X0011750Y0005000D01*
X0011250D02*
X0011500Y0004750D01*
Y0004250D02*
X0011250Y0004000D01*
X0011750D02*
X0011500Y0004250D01*
Y0003750D02*
X0011750Y0004000D01*
X0011250D02*
X0011500Y0003750D01*
Y0003250D02*
X0011250Y0003000D01*
X0011750D02*
X0011500Y0003250D01*
Y0002750D02*
X0011750Y0003000D01*
X0011250D02*
X0011500Y0002750D01*
X0003750Y0014000D02*
X0003500Y0013750D01*
X0004000D02*
X0003750Y0014000D01*
Y0013500D02*
X0004000Y0013750D01*
X0003500D02*
X0003750Y0013500D01*
Y0013000D02*
X0003500Y0012750D01*
X0004000D02*
X0003750Y0013000D01*
Y0012500D02*
X0004000Y0012750D01*
X0003500D02*
X0003750Y0012500D01*
Y0012000D02*
X0003500Y0011750D01*
X0004000D02*
X0003750Y0012000D01*
Y0011500D02*
X0004000Y0011750D01*
X0003500D02*
X0003750Y0011500D01*
Y0011000D02*
X0003500Y0010750D01*
X0004000D02*
X0003750Y0011000D01*
Y0010500D02*
X0004000Y0010750D01*
X0003500D02*
X0003750Y0010500D01*
Y0010000D02*
X0003500Y0009750D01*
X0004000D02*
X0003750Y0010000D01*
Y0009500D02*
X0004000Y0009750D01*
X0003500D02*
X0003750Y0009500D01*
Y0009000D02*
X0003500Y0008750D01*
X0004000D02*
X0003750Y0009000D01*
Y0008500D02*
X0004000Y0008750D01*
X0003500D02*
X0003750Y0008500D01*
Y0008000D02*
X0003500Y0007750D01*
X0004000D02*
X0003750Y0008000D01*
Y0007500D02*
X0004000Y0007750D01*
X0003500D02*
X0003750Y0007500D01*
Y0007000D02*
X0003500Y0006750D01*
X0004000D02*
X0003750Y0007000D01*
Y0006500D02*
X0004000Y0006750D01*
X0003500D02*
X0003750Y0006500D01*
Y0006000D02*
X0003500Y0005750D01*
X0004000D02*
X0003750Y0006000D01*
Y0005500D02*
X0004000Y0005750D01*
X0003500D02*
X0003750Y0005500D01*
Y0005000D02*
X0003500Y0004750D01*
X0004000D02*
X0003750Y0005000D01*
Y0004500D02*
X0004000Y0004750D01*
X0003500D02*
X0003750Y0004500D01*
Y0004000D02*
X0003500Y0003750D01*
X0004000D02*
X0003750Y0004000D01*
Y0003500D02*
X0004000Y0003750D01*
X0003500D02*
X0003750Y0003500D01*
Y0003000D02*
X0003500Y0002750D01*
X0004000D02*
X0003750Y0003000D01*
Y0002500D02*
X0004000Y0002750D01*
X0003500D02*
X0003750Y0002500D01*
X0010000Y0014000D02*
X0009750Y0013750D01*
X0010250D02*
X0010000Y0014000D01*
Y0013500D02*
X0010250Y0013750D01*
X0009750D02*
X0010000Y0013500D01*
Y0013000D02*
X0009750Y0012750D01*
X0010250D02*
X0010000Y0013000D01*
Y0012500D02*
X0010250Y0012750D01*
X0009750D02*
X0010000Y0012500D01*
Y0012000D02*
X0009750Y0011750D01*
X0010250D02*
X0010000Y0012000D01*
Y0011500D02*
X0010250Y0011750D01*
X0009750D02*
X0010000Y0011500D01*
Y0011000D02*
X0009750Y0010750D01*
X0010250D02*
X0010000Y0011000D01*
Y0010500D02*
X0010250Y0010750D01*
X0009750D02*
X0010000Y0010500D01*
Y0010000D02*
X0009750Y0009750D01*
X0010250D02*
X0010000Y0010000D01*
Y0009500D02*
X0010250Y0009750D01*
X0009750D02*
X0010000Y0009500D01*
Y0009000D02*
X0009750Y0008750D01*
X0010250D02*
X0010000Y0009000D01*
Y0008500D02*
X0010250Y0008750D01*
X0009750D02*
X0010000Y0008500D01*
Y0008000D02*
X0009750Y0007750D01*
X0010250D02*
X0010000Y0008000D01*
Y0007500D02*
X0010250Y0007750D01*
X0009750D02*
X0010000Y0007500D01*
Y0007000D02*
X0009750Y0006750D01*
X0010250D02*
X0010000Y0007000D01*
Y0006500D02*
X0010250Y0006750D01*
X0009750D02*
X0010000Y0006500D01*
Y0006000D02*
X0009750Y0005750D01*
X0010250D02*
X0010000Y0006000D01*
Y0005500D02*
X0010250Y0005750D01*
X0009750D02*
X0010000Y0005500D01*
Y0005000D02*
X0009750Y0004750D01*
X0010250D02*
X0010000Y0005000D01*
Y0004500D02*
X0010250Y0004750D01*
X0009750D02*
X0010000Y0004500D01*
Y0004000D02*
X0009750Y0003750D01*
X0010250D02*
X0010000Y0004000D01*
Y0003500D02*
X0010250Y0003750D01*
X0009750D02*
X0010000Y0003500D01*
Y0003000D02*
X0009750Y0002750D01*
X0010250D02*
X0010000Y0003000D01*
Y0002500D02*
X0010250Y0002750D01*
X0009750D02*
X0010000Y0002500D01*
X0005250Y0011250D02*
X0005000Y0011000D01*
X0005500D02*
X0005250Y0011250D01*
Y0010750D02*
X0005500Y0011000D01*
X0005000D02*
X0005250Y0010750D01*
Y0010250D02*
X0005000Y0010000D01*
X0005500D02*
X0005250Y0010250D01*
Y0009750D02*
X0005500Y0010000D01*
X0005000D02*
X0005250Y0009750D01*
Y0006500D02*
X0005000Y0006250D01*
X0005500D02*
X0005250Y0006500D01*
Y0006000D02*
X0005500Y0006250D01*
X0005000D02*
X0005250Y0006000D01*
Y0007500D02*
X0005000Y0007250D01*
X0005500D02*
X0005250Y0007500D01*
Y0007000D02*
X0005500Y0007250D01*
X0005000D02*
X0005250Y0007000D01*
X0004250Y0001500D02*
X0004000Y0001250D01*
X0004500D02*
X0004250Y0001500D01*
Y0001000D02*
X0004500Y0001250D01*
X0004000D02*
X0004250Y0001000D01*
X0005250Y0001500D02*
X0005000Y0001250D01*
X0005500D02*
X0005250Y0001500D01*
Y0001000D02*
X0005500Y0001250D01*
X0005000D02*
X0005250Y0001000D01*
X0006250Y0001500D02*
X0006000Y0001250D01*
X0006500D02*
X0006250Y0001500D01*
Y0001000D02*
X0006500Y0001250D01*
X0006000D02*
X0006250Y0001000D01*
X0007250Y0001500D02*
X0007000Y0001250D01*
X0007500D02*
X0007250Y0001500D01*
Y0001000D02*
X0007500Y0001250D01*
X0007000D02*
X0007250Y0001000D01*
X0008250Y0001500D02*
X0008000Y0001250D01*
X0008500D02*
X0008250Y0001500D01*
Y0001000D02*
X0008500Y0001250D01*
X0008000D02*
X0008250Y0001000D01*
X0009250Y0001500D02*
X0009000Y0001250D01*
X0009500D02*
X0009250Y0001500D01*
Y0001000D02*
X0009500Y0001250D01*
X0009000D02*
X0009250Y0001000D01*
X0004250Y0015500D02*
X0004000Y0015250D01*
X0004500D02*
X0004250Y0015500D01*
Y0015000D02*
X0004500Y0015250D01*
X0004000D02*
X0004250Y0015000D01*
X0005250Y0015500D02*
X0005000Y0015250D01*
X0005500D02*
X0005250Y0015500D01*
Y0015000D02*
X0005500Y0015250D01*
X0005000D02*
X0005250Y0015000D01*
X0006250Y0015500D02*
X0006000Y0015250D01*
X0006500D02*
X0006250Y0015500D01*
Y0015000D02*
X0006500Y0015250D01*
X0006000D02*
X0006250Y0015000D01*
X0007250Y0015500D02*
X0007000Y0015250D01*
X0007500D02*
X0007250Y0015500D01*
Y0015000D02*
X0007500Y0015250D01*
X0007000D02*
X0007250Y0015000D01*
X0008250Y0015500D02*
X0008000Y0015250D01*
X0008500D02*
X0008250Y0015500D01*
Y0015000D02*
X0008500Y0015250D01*
X0008000D02*
X0008250Y0015000D01*
X0009250Y0015500D02*
X0009000Y0015250D01*
X0009500D02*
X0009250Y0015500D01*
Y0015000D02*
X0009500Y0015250D01*
X0009000D02*
X0009250Y0015000D01*
X0002250Y0008000D02*
X0002000Y0007750D01*
X0002500D02*
X0002250Y0008000D01*
Y0007500D02*
X0002500Y0007750D01*
X0002000D02*
X0002250Y0007500D01*
Y0007000D02*
X0002000Y0006750D01*
X0002500D02*
X0002250Y0007000D01*
Y0006500D02*
X0002500Y0006750D01*
X0002000D02*
X0002250Y0006500D01*
Y0006000D02*
X0002000Y0005750D01*
X0002500D02*
X0002250Y0006000D01*
Y0005500D02*
X0002500Y0005750D01*
X0002000D02*
X0002250Y0005500D01*
Y0005000D02*
X0002000Y0004750D01*
X0002500D02*
X0002250Y0005000D01*
Y0004500D02*
X0002500Y0004750D01*
X0002000D02*
X0002250Y0004500D01*
Y0004000D02*
X0002000Y0003750D01*
X0002500D02*
X0002250Y0004000D01*
Y0003500D02*
X0002500Y0003750D01*
X0002000D02*
X0002250Y0003500D01*
Y0003000D02*
X0002000Y0002750D01*
X0002500D02*
X0002250Y0003000D01*
Y0002500D02*
X0002500Y0002750D01*
X0002000D02*
X0002250Y0002500D01*
X0001750Y0001500D02*
X0001500Y0001250D01*
X0002000D02*
X0001750Y0001500D01*
Y0001000D02*
X0002000Y0001250D01*
X0001500D02*
X0001750Y0001000D01*
X0002750Y0001500D02*
X0002500Y0001250D01*
X0003000D02*
X0002750Y0001500D01*
Y0001000D02*
X0003000Y0001250D01*
X0002500D02*
X0002750Y0001000D01*
X0011750Y0009250D02*
X0011250D01*
X0011500Y0009500D02*
Y0009000D01*
X0012750Y0009250D02*
X0012250D01*
X0012500Y0009500D02*
Y0009000D01*
X0011750Y0013250D02*
X0011250D01*
X0011500Y0013500D02*
Y0013000D01*
X0012750Y0013250D02*
X0012250D01*
X0012500Y0013500D02*
Y0013000D01*
X0011750Y0011250D02*
X0011250D01*
X0011500Y0011500D02*
Y0011000D01*
X0012750Y0011250D02*
X0012250D01*
X0012500Y0011500D02*
Y0011000D01*
M02*
